<svg xmlns="http://www.w3.org/2000/svg" width="320" height="320" viewBox="0 0 320 320">
  <g fill="none" stroke="#f3efe6" stroke-width="1.1" stroke-linecap="round" opacity="1">
    <path d="M60 90 C60 60 80 40 110 40 C110 70 90 90 60 90 Z"/>
    <path d="M110 40 C110 70 90 90 60 90" />
    <path d="M85 65 L88 62 M78 78 L82 74 M95 55 L98 52"/>
    <path d="M250 250 C250 220 230 200 200 200 C200 230 220 250 250 250 Z"/>
    <path d="M225 225 L222 222 M235 235 L231 231 M215 215 L212 212"/>
    <path d="M40 240 q30 -10 60 6 q-24 22 -60 -6 Z"/>
    <path d="M70 246 l6 -4 M55 243 l4 -3"/>
    <path d="M280 70 q-30 -10 -60 6 q24 22 60 -6 Z"/>
    <path d="M250 76 l-6 -4 M265 73 l-4 -3"/>
    <circle cx="160" cy="160" r="3"/>
    <path d="M150 150 q10 -14 24 -2" />
  </g>
</svg>
